<?xml version="1.0" encoding="utf-8"?>
<!-- Generator: Adobe Illustrator 23.0.1, SVG Export Plug-In . SVG Version: 6.00 Build 0)  -->
<svg version="1.1" id="Icons" xmlns="http://www.w3.org/2000/svg" xmlns:xlink="http://www.w3.org/1999/xlink" x="0px" y="0px"
	 viewBox="0 0 24 24" style="enable-background:new 0 0 24 24;" xml:space="preserve">
<g>
	<path d="M22.76,9.07c-0.15-0.09-0.33-0.1-0.49-0.02L17,11.69V9.5c0-0.17-0.09-0.33-0.24-0.43c-0.15-0.09-0.33-0.1-0.49-0.02
		L11,11.69V9.5c0-0.17-0.09-0.33-0.24-0.43c-0.15-0.09-0.33-0.1-0.49-0.02L5,11.69V3.5C5,3.22,4.78,3,4.5,3h-3C1.22,3,1,3.22,1,3.5
		v17C1,20.78,1.22,21,1.5,21h21c0.28,0,0.5-0.22,0.5-0.5v-11C23,9.33,22.91,9.17,22.76,9.07z M2,4h2v2H2V4z M22,20H2V7h2v5.5
		c0,0.17,0.09,0.33,0.24,0.43c0.15,0.09,0.33,0.1,0.49,0.02L10,10.31v2.19c0,0.17,0.09,0.33,0.24,0.43c0.15,0.09,0.33,0.1,0.49,0.02
		L16,10.31v2.19c0,0.17,0.09,0.33,0.24,0.43c0.15,0.09,0.33,0.1,0.49,0.02L22,10.31V20z"/>
	<path d="M9.5,15h-2C7.22,15,7,15.22,7,15.5S7.22,16,7.5,16h2c0.28,0,0.5-0.22,0.5-0.5S9.78,15,9.5,15z"/>
	<path d="M14.5,15h-2c-0.28,0-0.5,0.22-0.5,0.5s0.22,0.5,0.5,0.5h2c0.28,0,0.5-0.22,0.5-0.5S14.78,15,14.5,15z"/>
	<path d="M17.5,16h2c0.28,0,0.5-0.22,0.5-0.5S19.78,15,19.5,15h-2c-0.28,0-0.5,0.22-0.5,0.5S17.22,16,17.5,16z"/>
	<path d="M9.5,17h-2C7.22,17,7,17.22,7,17.5S7.22,18,7.5,18h2c0.28,0,0.5-0.22,0.5-0.5S9.78,17,9.5,17z"/>
	<path d="M14.5,17h-2c-0.28,0-0.5,0.22-0.5,0.5s0.22,0.5,0.5,0.5h2c0.28,0,0.5-0.22,0.5-0.5S14.78,17,14.5,17z"/>
	<path d="M17.5,18h2c0.28,0,0.5-0.22,0.5-0.5S19.78,17,19.5,17h-2c-0.28,0-0.5,0.22-0.5,0.5S17.22,18,17.5,18z"/>
	<path d="M7.5,7h6C13.78,7,14,6.78,14,6.5v-2C14,3.12,12.88,2,11.5,2c-0.92,0-1.73,0.5-2.17,1.25C9.09,3.09,8.81,3,8.5,3
		C7.67,3,7,3.67,7,4.5v2C7,6.78,7.22,7,7.5,7z M8,4.5C8,4.22,8.22,4,8.5,4S9,4.22,9,4.5C9,4.78,9.22,5,9.5,5S10,4.78,10,4.5
		C10,3.67,10.67,3,11.5,3S13,3.67,13,4.5V6H8V4.5z"/>
</g>
</svg>
