<svg xmlns="http://www.w3.org/2000/svg" viewBox="0 0 24 24" style="fill-rule:evenodd;clip-rule:evenodd;stroke-linejoin:round;stroke-miterlimit:1.41421;"><path d="M15,17.37c0,0.361 -0.147,0.702 -0.415,0.959l-2.586,2.481l-2.582,-2.486c-0.269,-0.258 -0.417,-0.599 -0.417,-0.96c-0.001,-0.36 0.146,-0.7 0.414,-0.958c0.272,-0.262 0.634,-0.406 1.021,-0.406c0.388,0 0.752,0.145 1.026,0.41l0.195,0.187c0.194,0.186 0.5,0.185 0.694,-0.001l0.191,-0.184c0.545,-0.526 1.503,-0.526 2.047,-0.001c0.267,0.256 0.413,0.596 0.412,0.959m-2.998,-1.816c-0.928,-0.759 -2.41,-0.706 -3.282,0.131c-0.466,0.45 -0.722,1.047 -0.72,1.681c0,0.633 0.257,1.23 0.723,1.679l2.933,2.821c0.096,0.089 0.219,0.134 0.342,0.134c0.121,0 0.241,-0.044 0.337,-0.131l2.943,-2.818c0.466,-0.449 0.722,-1.045 0.722,-1.68c0.002,-0.636 -0.253,-1.233 -0.719,-1.681c-0.868,-0.837 -2.35,-0.891 -3.279,-0.136" /><path d="M3,16.5l0,6c0,0.276 0.224,0.5 0.5,0.5c0.276,0 0.5,-0.224 0.5,-0.5l0,-6c0,-1.93 1.57,-3.5 3.5,-3.5l9,0c1.93,0 3.5,1.57 3.5,3.5l0,6c0,0.276 0.224,0.5 0.5,0.5c0.276,0 0.5,-0.224 0.5,-0.5l0,-6c0,-2.481 -2.019,-4.5 -4.5,-4.5l-9,0c-2.481,0 -4.5,2.019 -4.5,4.5" /><path d="M12,2c2.206,0 4,1.794 4,4c0,2.206 -1.794,4 -4,4c-2.206,0 -4,-1.794 -4,-4c0,-2.206 1.794,-4 4,-4m0,9c2.757,0 5,-2.243 5,-5c0,-2.757 -2.243,-5 -5,-5c-2.757,0 -5,2.243 -5,5c0,2.757 2.243,5 5,5" /><rect x="0.0" y="0.0" width="24.0" height="24.0" style="fill:none;"/>
</svg>