<svg xmlns="http://www.w3.org/2000/svg" viewBox="0 0 24 24" style="fill-rule:evenodd;clip-rule:evenodd;stroke-linejoin:round;stroke-miterlimit:1.41421;"><path d="M23,15.303c-0.674,0.618 -1.202,0.698 -2.051,0.71c0.033,-0.161 0.051,-0.327 0.051,-0.497c0,-1.379 -1.121,-2.5 -2.5,-2.5c-1.379,0 -2.5,1.121 -2.5,2.5c0,0.171 0.018,0.338 0.051,0.5l-2.78,0.002c-1.412,0.002 -2.723,0.004 -4.322,-0.001c0.033,-0.162 0.051,-0.33 0.051,-0.501c0,-1.379 -1.121,-2.5 -2.5,-2.5c-1.379,0 -2.5,1.121 -2.5,2.5c0,0.161 0.019,0.318 0.048,0.471c-0.745,-0.055 -2.067,-0.169 -2.555,-0.225c-0.195,-0.205 -0.483,-0.985 -0.493,-1.267c0.683,-1.26 0.469,-2.161 0.213,-2.719c0.356,-0.119 0.867,-0.273 1.223,-0.38c0.799,-0.241 1.167,-0.355 1.323,-0.431c0.551,-0.271 1.715,-1.189 3.067,-2.27c0.325,-0.26 0.685,-0.548 0.858,-0.677c0.274,0 0.795,-0.002 1.401,-0.007c1.2,-0.009 2.845,-0.021 3.432,0.004c0.367,0.017 1.423,0.818 3.138,2.384c0.256,0.233 0.456,0.415 0.569,0.506c0.14,0.114 0.14,0.114 2.018,0.385c1.239,0.179 3.488,0.503 3.998,0.648c0.209,0.316 0.727,1.348 0.76,1.578l0,1.787Zm-4.5,1.713c-0.827,0 -1.5,-0.673 -1.5,-1.5c0,-0.827 0.673,-1.5 1.5,-1.5c0.827,0 1.5,0.673 1.5,1.5c0,0.827 -0.673,1.5 -1.5,1.5m-12,0c-0.827,0 -1.5,-0.673 -1.5,-1.5c0,-0.827 0.673,-1.5 1.5,-1.5c0.827,0 1.5,0.673 1.5,1.5c0,0.827 -0.673,1.5 -1.5,1.5m16.267,-5.945c-0.321,-0.164 -1.611,-0.371 -4.381,-0.771c-0.673,-0.097 -1.365,-0.197 -1.615,-0.243c-0.108,-0.092 -0.259,-0.231 -0.441,-0.397c-1.808,-1.649 -3.004,-2.61 -3.769,-2.644c-0.612,-0.026 -2.205,-0.015 -3.484,-0.005c-0.735,0.005 -1.342,0.01 -1.524,0.005c-0.239,-0.009 -0.223,-0.005 -1.351,0.898c-0.893,0.714 -2.388,1.909 -2.884,2.153c-0.113,0.053 -0.725,0.237 -1.172,0.372c-1.759,0.531 -1.913,0.593 -2.045,0.835c-0.156,0.28 -0.01,0.529 0.087,0.695c0.192,0.331 0.551,0.948 -0.096,2.103c-0.314,0.558 0.319,1.831 0.325,1.844c0.26,0.515 0.546,0.786 0.875,0.829c0.532,0.067 2.802,0.262 3.22,0.27c0.457,0.604 1.174,1.001 1.988,1.001c0.817,0 1.538,-0.4 1.994,-1.009c0.015,0.002 0.027,0.009 0.042,0.009c0.915,0.003 1.726,0.004 2.504,0.004c0.754,0 1.477,-0.001 2.232,-0.002l3.241,-0.002c0.457,0.603 1.174,1 1.987,1c0.819,0 1.541,-0.401 1.997,-1.012c0.021,0.003 0.038,0.012 0.059,0.012l0.001,0c1.251,-0.003 2.155,-0.005 3.297,-1.147c0.093,-0.093 0.146,-0.22 0.146,-0.353l-0.001,-2.023c-0.02,-0.432 -0.843,-2.221 -1.232,-2.422" /><rect x="0.0" y="0.0" width="24.0" height="24.0" style="fill:none;"/>
</svg>