<svg xmlns="http://www.w3.org/2000/svg" viewBox="0 0 24 24" style="fill-rule:evenodd;clip-rule:evenodd;stroke-linejoin:round;stroke-miterlimit:1.41421;">
<g transform="matrix(1,0,0,1,22.2451,13)">
                        <path d="M0,-2L-8.478,-2L-10.329,-4.777C-10.438,-4.94 -10.634,-5.026 -10.822,-4.994C-11.015,-4.964 -11.172,-4.825 -11.226,-4.637L-12.782,0.809L-15.271,-6.658C-15.342,-6.872 -15.527,-7.009 -15.776,-6.999C-16.003,-6.985 -16.191,-6.82 -16.235,-6.598L-17.155,-2L-20.476,-2C-20.975,-2.898 -21.245,-3.913 -21.245,-4.971C-21.25,-6.582 -20.639,-8.098 -19.525,-9.241C-18.418,-10.375 -16.948,-11 -15.387,-11C-13.821,-11 -12.347,-10.372 -11.235,-9.23L-10.597,-8.576C-10.502,-8.479 -10.373,-8.425 -10.238,-8.425C-10.104,-8.425 -9.975,-8.479 -9.881,-8.576L-9.25,-9.221C-8.142,-10.358 -6.668,-10.985 -5.104,-10.985C-3.538,-10.985 -2.067,-10.36 -0.961,-9.226C0.15,-8.086 0.76,-6.57 0.755,-4.954C0.755,-3.902 0.49,-2.893 0,-2M-10.146,8.692C-10.174,8.72 -10.21,8.756 -10.25,8.797C-10.292,8.754 -10.33,8.716 -10.357,8.688L-19.515,-0.703C-19.607,-0.798 -19.691,-0.9 -19.777,-1L-16.745,-1C-16.507,-1 -16.302,-1.168 -16.255,-1.402L-15.624,-4.556L-13.22,2.658C-13.151,2.863 -12.96,3 -12.745,3L-12.734,3C-12.515,2.995 -12.324,2.848 -12.265,2.637L-10.562,-3.323L-9.161,-1.223C-9.068,-1.083 -8.912,-1 -8.745,-1L-0.689,-1C-0.78,-0.893 -0.871,-0.785 -0.97,-0.684L-10.146,8.692ZM-5.104,-11.985C-6.94,-11.985 -8.667,-11.251 -9.966,-9.919L-10.238,-9.641L-10.519,-9.929C-11.821,-11.264 -13.55,-12 -15.387,-12C-17.22,-12 -18.943,-11.268 -20.241,-9.939C-21.538,-8.607 -22.25,-6.842 -22.245,-4.969C-22.245,-3.1 -21.53,-1.337 -20.231,-0.005L-11.073,9.387C-10.944,9.518 -10.604,9.855 -10.604,9.855C-10.506,9.952 -10.379,10 -10.252,10C-10.126,10 -10,9.953 -9.902,9.858C-9.902,9.858 -9.561,9.523 -9.432,9.392L-0.254,0.015C1.041,-1.313 1.755,-3.079 1.755,-4.953C1.76,-6.831 1.05,-8.596 -0.244,-9.924C-1.541,-11.253 -3.267,-11.985 -5.104,-11.985" />
                    </g>
<rect x="0.0" y="0.0" width="24.0" height="24.0" style="fill:none;"/>
</svg>
