<svg xmlns="http://www.w3.org/2000/svg" viewBox="0 0 24 24" style="fill-rule:evenodd;clip-rule:evenodd;stroke-linejoin:round;stroke-miterlimit:1.41421;"><path d="M11.995,1.253l9.403,10.747l-0.898,0c-0.276,0 -0.5,0.223 -0.5,0.5l0,9.5l-5,0l0,-6.5c0,-0.277 -0.223,-0.5 -0.5,-0.5l-5,0c-0.276,0 -0.5,0.223 -0.5,0.5l0,6.5l-5,0l0,-9.5c0,-0.277 -0.223,-0.5 -0.5,-0.5l-1,0l2.4,-3.201c0.065,-0.086 0.1,-0.191 0.1,-0.299l0,-4.5l2,0l0,1.5c0,0.207 0.128,0.392 0.321,0.466c0.195,0.075 0.413,0.021 0.551,-0.132l4.123,-4.581Zm-4.495,1.747l-3,0c-0.276,0 -0.5,0.223 -0.5,0.5l0,4.833l-2.9,3.867c-0.113,0.151 -0.131,0.354 -0.047,0.523c0.085,0.17 0.258,0.277 0.447,0.277l1.5,0l0,9.5c0,0.276 0.224,0.5 0.5,0.5l6,0c0.277,0 0.5,-0.224 0.5,-0.5l0,-6.5l4,0l0,6.5c0,0.276 0.224,0.5 0.5,0.5l6,0c0.277,0 0.5,-0.224 0.5,-0.5l0,-9.5l1.5,0c0.197,0 0.374,-0.115 0.455,-0.294c0.082,-0.179 0.051,-0.388 -0.078,-0.536l-10.5,-12c-0.094,-0.107 -0.23,-0.169 -0.373,-0.17c-0.135,0.002 -0.28,0.059 -0.375,0.165l-3.629,4.031l0,-0.696c0,-0.277 -0.223,-0.5 -0.5,-0.5" /><rect x="0.0" y="0.0" width="24.0" height="24.0" style="fill:none;"/>
</svg>